<svg id="visual" viewBox="0 0 900 300" width="900" height="300" xmlns="http://www.w3.org/2000/svg" xmlns:xlink="http://www.w3.org/1999/xlink" version="1.1"><rect x="0" y="0" width="900" height="300" fill="#001220"></rect><path d="M0 180L12.5 182.5C25 185 50 190 75 192.5C100 195 125 195 150 192.3C175 189.7 200 184.3 225 187.7C250 191 275 203 300 203.2C325 203.3 350 191.7 375 185.8C400 180 425 180 450 181.8C475 183.7 500 187.3 525 189.7C550 192 575 193 600 196C625 199 650 204 675 202.5C700 201 725 193 750 188.7C775 184.3 800 183.7 825 186.5C850 189.3 875 195.7 887.5 198.8L900 202L900 301L887.5 301C875 301 850 301 825 301C800 301 775 301 750 301C725 301 700 301 675 301C650 301 625 301 600 301C575 301 550 301 525 301C500 301 475 301 450 301C425 301 400 301 375 301C350 301 325 301 300 301C275 301 250 301 225 301C200 301 175 301 150 301C125 301 100 301 75 301C50 301 25 301 12.5 301L0 301Z" fill="#660708"></path><path d="M0 230L12.5 225.7C25 221.3 50 212.7 75 215.3C100 218 125 232 150 232C175 232 200 218 225 213.3C250 208.7 275 213.3 300 214.8C325 216.3 350 214.7 375 212.3C400 210 425 207 450 209.5C475 212 500 220 525 223.8C550 227.7 575 227.3 600 230C625 232.7 650 238.3 675 237C700 235.7 725 227.3 750 225.3C775 223.3 800 227.7 825 229.5C850 231.3 875 230.7 887.5 230.3L900 230L900 301L887.5 301C875 301 850 301 825 301C800 301 775 301 750 301C725 301 700 301 675 301C650 301 625 301 600 301C575 301 550 301 525 301C500 301 475 301 450 301C425 301 400 301 375 301C350 301 325 301 300 301C275 301 250 301 225 301C200 301 175 301 150 301C125 301 100 301 75 301C50 301 25 301 12.5 301L0 301Z" fill="#8e1819"></path><path d="M0 249L12.5 245.5C25 242 50 235 75 237.7C100 240.3 125 252.7 150 255.7C175 258.7 200 252.3 225 250C250 247.7 275 249.3 300 252.3C325 255.3 350 259.7 375 262C400 264.3 425 264.7 450 258.8C475 253 500 241 525 240.7C550 240.3 575 251.7 600 254.7C625 257.7 650 252.3 675 252.2C700 252 725 257 750 254.5C775 252 800 242 825 237C850 232 875 232 887.5 232L900 232L900 301L887.5 301C875 301 850 301 825 301C800 301 775 301 750 301C725 301 700 301 675 301C650 301 625 301 600 301C575 301 550 301 525 301C500 301 475 301 450 301C425 301 400 301 375 301C350 301 325 301 300 301C275 301 250 301 225 301C200 301 175 301 150 301C125 301 100 301 75 301C50 301 25 301 12.5 301L0 301Z" fill="#b92829"></path><path d="M0 269L12.5 271.2C25 273.3 50 277.7 75 278.8C100 280 125 278 150 275.5C175 273 200 270 225 269.8C250 269.7 275 272.3 300 273.7C325 275 350 275 375 276.5C400 278 425 281 450 280.3C475 279.7 500 275.3 525 273C550 270.7 575 270.3 600 270.5C625 270.7 650 271.3 675 271.7C700 272 725 272 750 271.8C775 271.7 800 271.3 825 271C850 270.7 875 270.3 887.5 270.2L900 270L900 301L887.5 301C875 301 850 301 825 301C800 301 775 301 750 301C725 301 700 301 675 301C650 301 625 301 600 301C575 301 550 301 525 301C500 301 475 301 450 301C425 301 400 301 375 301C350 301 325 301 300 301C275 301 250 301 225 301C200 301 175 301 150 301C125 301 100 301 75 301C50 301 25 301 12.5 301L0 301Z" fill="#e5383b"></path></svg>