<svg id="visual" viewBox="0 0 900 300" width="900" height="300" xmlns="http://www.w3.org/2000/svg" xmlns:xlink="http://www.w3.org/1999/xlink" version="1.1"><rect x="0" y="0" width="900" height="300" fill="#001220"></rect><path d="M0 118L12.5 115.5C25 113 50 108 75 105.5C100 103 125 103 150 105.7C175 108.3 200 113.7 225 110.3C250 107 275 95 300 94.8C325 94.7 350 106.3 375 112.2C400 118 425 118 450 116.2C475 114.3 500 110.7 525 108.3C550 106 575 105 600 102C625 99 650 94 675 95.5C700 97 725 105 750 109.3C775 113.7 800 114.3 825 111.5C850 108.7 875 102.3 887.5 99.2L900 96L900 0L887.5 0C875 0 850 0 825 0C800 0 775 0 750 0C725 0 700 0 675 0C650 0 625 0 600 0C575 0 550 0 525 0C500 0 475 0 450 0C425 0 400 0 375 0C350 0 325 0 300 0C275 0 250 0 225 0C200 0 175 0 150 0C125 0 100 0 75 0C50 0 25 0 12.5 0L0 0Z" fill="#660708"></path><path d="M0 68L12.5 72.3C25 76.7 50 85.3 75 82.7C100 80 125 66 150 66C175 66 200 80 225 84.7C250 89.3 275 84.7 300 83.2C325 81.7 350 83.3 375 85.7C400 88 425 91 450 88.5C475 86 500 78 525 74.2C550 70.3 575 70.7 600 68C625 65.3 650 59.7 675 61C700 62.3 725 70.7 750 72.7C775 74.7 800 70.3 825 68.5C850 66.7 875 67.3 887.5 67.7L900 68L900 0L887.5 0C875 0 850 0 825 0C800 0 775 0 750 0C725 0 700 0 675 0C650 0 625 0 600 0C575 0 550 0 525 0C500 0 475 0 450 0C425 0 400 0 375 0C350 0 325 0 300 0C275 0 250 0 225 0C200 0 175 0 150 0C125 0 100 0 75 0C50 0 25 0 12.5 0L0 0Z" fill="#8e1819"></path><path d="M0 49L12.5 52.5C25 56 50 63 75 60.3C100 57.7 125 45.3 150 42.3C175 39.3 200 45.7 225 48C250 50.3 275 48.7 300 45.7C325 42.7 350 38.3 375 36C400 33.7 425 33.3 450 39.2C475 45 500 57 525 57.3C550 57.7 575 46.3 600 43.3C625 40.3 650 45.7 675 45.8C700 46 725 41 750 43.5C775 46 800 56 825 61C850 66 875 66 887.5 66L900 66L900 0L887.5 0C875 0 850 0 825 0C800 0 775 0 750 0C725 0 700 0 675 0C650 0 625 0 600 0C575 0 550 0 525 0C500 0 475 0 450 0C425 0 400 0 375 0C350 0 325 0 300 0C275 0 250 0 225 0C200 0 175 0 150 0C125 0 100 0 75 0C50 0 25 0 12.5 0L0 0Z" fill="#b92829"></path><path d="M0 29L12.5 26.8C25 24.7 50 20.3 75 19.2C100 18 125 20 150 22.5C175 25 200 28 225 28.2C250 28.3 275 25.7 300 24.3C325 23 350 23 375 21.5C400 20 425 17 450 17.7C475 18.3 500 22.7 525 25C550 27.3 575 27.7 600 27.5C625 27.3 650 26.7 675 26.3C700 26 725 26 750 26.2C775 26.3 800 26.7 825 27C850 27.3 875 27.7 887.5 27.8L900 28L900 0L887.5 0C875 0 850 0 825 0C800 0 775 0 750 0C725 0 700 0 675 0C650 0 625 0 600 0C575 0 550 0 525 0C500 0 475 0 450 0C425 0 400 0 375 0C350 0 325 0 300 0C275 0 250 0 225 0C200 0 175 0 150 0C125 0 100 0 75 0C50 0 25 0 12.5 0L0 0Z" fill="#e5383b"></path></svg>