<svg id="visual" viewBox="0 0 900 300" width="900" height="300" xmlns="http://www.w3.org/2000/svg" xmlns:xlink="http://www.w3.org/1999/xlink" version="1.1"><rect x="0" y="0" width="900" height="300" fill="#001220"></rect><path d="M0 215L13.7 218.8C27.3 222.7 54.7 230.3 82 234.7C109.3 239 136.7 240 163.8 239C191 238 218 235 245.2 233.7C272.3 232.3 299.7 232.7 327 230.5C354.3 228.3 381.7 223.7 409 222C436.3 220.3 463.7 221.7 491 224C518.3 226.3 545.7 229.7 573 228.7C600.3 227.7 627.7 222.3 654.8 221.7C682 221 709 225 736.2 225.7C763.3 226.3 790.7 223.7 818 223.7C845.3 223.7 872.7 226.3 886.3 227.7L900 229L900 301L886.3 301C872.7 301 845.3 301 818 301C790.7 301 763.3 301 736.2 301C709 301 682 301 654.8 301C627.7 301 600.3 301 573 301C545.7 301 518.3 301 491 301C463.7 301 436.3 301 409 301C381.7 301 354.3 301 327 301C299.7 301 272.3 301 245.2 301C218 301 191 301 163.8 301C136.7 301 109.3 301 82 301C54.7 301 27.3 301 13.7 301L0 301Z" fill="#ba181b"></path><path d="M0 239L13.7 240.3C27.3 241.7 54.7 244.3 82 245.7C109.3 247 136.7 247 163.8 248.8C191 250.7 218 254.3 245.2 254.2C272.3 254 299.7 250 327 246.8C354.3 243.7 381.7 241.3 409 242.3C436.3 243.3 463.7 247.7 491 250.8C518.3 254 545.7 256 573 254.3C600.3 252.7 627.7 247.3 654.8 245.2C682 243 709 244 736.2 243.7C763.3 243.3 790.7 241.7 818 241.2C845.3 240.7 872.7 241.3 886.3 241.7L900 242L900 301L886.3 301C872.7 301 845.3 301 818 301C790.7 301 763.3 301 736.2 301C709 301 682 301 654.8 301C627.7 301 600.3 301 573 301C545.7 301 518.3 301 491 301C463.7 301 436.3 301 409 301C381.7 301 354.3 301 327 301C299.7 301 272.3 301 245.2 301C218 301 191 301 163.8 301C136.7 301 109.3 301 82 301C54.7 301 27.3 301 13.7 301L0 301Z" fill="#cf292b"></path><path d="M0 265L13.7 264.3C27.3 263.7 54.7 262.3 82 263C109.3 263.7 136.7 266.3 163.8 267.7C191 269 218 269 245.2 268.7C272.3 268.3 299.7 267.7 327 268.3C354.3 269 381.7 271 409 271.3C436.3 271.7 463.7 270.3 491 271C518.3 271.7 545.7 274.3 573 275C600.3 275.7 627.7 274.3 654.8 272.5C682 270.7 709 268.3 736.2 267.3C763.3 266.3 790.7 266.7 818 268.3C845.3 270 872.7 273 886.3 274.5L900 276L900 301L886.3 301C872.7 301 845.3 301 818 301C790.7 301 763.3 301 736.2 301C709 301 682 301 654.8 301C627.7 301 600.3 301 573 301C545.7 301 518.3 301 491 301C463.7 301 436.3 301 409 301C381.7 301 354.3 301 327 301C299.7 301 272.3 301 245.2 301C218 301 191 301 163.8 301C136.7 301 109.3 301 82 301C54.7 301 27.3 301 13.7 301L0 301Z" fill="#e5383b"></path></svg>