<svg id="visual" viewBox="0 0 900 300" width="900" height="300" xmlns="http://www.w3.org/2000/svg" xmlns:xlink="http://www.w3.org/1999/xlink" version="1.1"><rect x="0" y="0" width="900" height="300" fill="#001321"></rect><path d="M0 269L11.5 264.5C23 260 46 251 69 251.5C92 252 115 262 138.2 265.8C161.3 269.7 184.7 267.3 207.8 262.5C231 257.7 254 250.3 277 249.7C300 249 323 255 346 256C369 257 392 253 415.2 252.8C438.3 252.7 461.7 256.3 484.8 260.3C508 264.3 531 268.7 554 266.8C577 265 600 257 623 254.3C646 251.7 669 254.3 692.2 254.5C715.3 254.7 738.7 252.3 761.8 253.5C785 254.7 808 259.3 831 263.2C854 267 877 270 888.5 271.5L900 273L900 301L888.5 301C877 301 854 301 831 301C808 301 785 301 761.8 301C738.7 301 715.3 301 692.2 301C669 301 646 301 623 301C600 301 577 301 554 301C531 301 508 301 484.8 301C461.7 301 438.3 301 415.2 301C392 301 369 301 346 301C323 301 300 301 277 301C254 301 231 301 207.8 301C184.7 301 161.3 301 138.2 301C115 301 92 301 69 301C46 301 23 301 11.5 301L0 301Z" fill="#009473"></path><path d="M0 249L11.5 251.5C23 254 46 259 69 260.7C92 262.3 115 260.7 138.2 258C161.3 255.3 184.7 251.7 207.8 253.2C231 254.7 254 261.3 277 266C300 270.7 323 273.3 346 269.5C369 265.7 392 255.3 415.2 255.3C438.3 255.3 461.7 265.7 484.8 267.5C508 269.3 531 262.7 554 261C577 259.3 600 262.7 623 264C646 265.3 669 264.7 692.2 263.8C715.3 263 738.7 262 761.8 259.7C785 257.3 808 253.7 831 251.7C854 249.7 877 249.3 888.5 249.2L900 249L900 301L888.5 301C877 301 854 301 831 301C808 301 785 301 761.8 301C738.7 301 715.3 301 692.2 301C669 301 646 301 623 301C600 301 577 301 554 301C531 301 508 301 484.8 301C461.7 301 438.3 301 415.2 301C392 301 369 301 346 301C323 301 300 301 277 301C254 301 231 301 207.8 301C184.7 301 161.3 301 138.2 301C115 301 92 301 69 301C46 301 23 301 11.5 301L0 301Z" fill="#139b73"></path><path d="M0 257L11.5 257.8C23 258.7 46 260.3 69 260.8C92 261.3 115 260.7 138.2 258.8C161.3 257 184.7 254 207.8 256.2C231 258.3 254 265.7 277 265.5C300 265.3 323 257.7 346 255.2C369 252.7 392 255.3 415.2 257.7C438.3 260 461.7 262 484.8 261.5C508 261 531 258 554 258C577 258 600 261 623 260.5C646 260 669 256 692.2 257.7C715.3 259.3 738.7 266.7 761.8 270.7C785 274.7 808 275.3 831 273.5C854 271.7 877 267.3 888.5 265.2L900 263L900 301L888.5 301C877 301 854 301 831 301C808 301 785 301 761.8 301C738.7 301 715.3 301 692.2 301C669 301 646 301 623 301C600 301 577 301 554 301C531 301 508 301 484.8 301C461.7 301 438.3 301 415.2 301C392 301 369 301 346 301C323 301 300 301 277 301C254 301 231 301 207.8 301C184.7 301 161.3 301 138.2 301C115 301 92 301 69 301C46 301 23 301 11.5 301L0 301Z" fill="#22a273"></path><path d="M0 274L11.5 275C23 276 46 278 69 279C92 280 115 280 138.2 276.8C161.3 273.7 184.7 267.3 207.8 266.3C231 265.3 254 269.7 277 272.2C300 274.7 323 275.3 346 274.5C369 273.7 392 271.3 415.2 268.3C438.3 265.3 461.7 261.7 484.8 263.3C508 265 531 272 554 275.7C577 279.3 600 279.7 623 278C646 276.3 669 272.7 692.2 268.2C715.3 263.7 738.7 258.3 761.8 256.3C785 254.3 808 255.7 831 257.3C854 259 877 261 888.5 262L900 263L900 301L888.5 301C877 301 854 301 831 301C808 301 785 301 761.8 301C738.7 301 715.3 301 692.2 301C669 301 646 301 623 301C600 301 577 301 554 301C531 301 508 301 484.8 301C461.7 301 438.3 301 415.2 301C392 301 369 301 346 301C323 301 300 301 277 301C254 301 231 301 207.8 301C184.7 301 161.3 301 138.2 301C115 301 92 301 69 301C46 301 23 301 11.5 301L0 301Z" fill="#2fa972"></path><path d="M0 273L11.5 270.8C23 268.7 46 264.3 69 263.7C92 263 115 266 138.2 269C161.3 272 184.7 275 207.8 277.2C231 279.3 254 280.7 277 278.8C300 277 323 272 346 269.2C369 266.3 392 265.7 415.2 265.8C438.3 266 461.7 267 484.8 267.8C508 268.7 531 269.3 554 270.8C577 272.3 600 274.7 623 276.5C646 278.3 669 279.7 692.2 278.5C715.3 277.3 738.7 273.7 761.8 270.5C785 267.3 808 264.7 831 264C854 263.3 877 264.7 888.5 265.3L900 266L900 301L888.5 301C877 301 854 301 831 301C808 301 785 301 761.8 301C738.7 301 715.3 301 692.2 301C669 301 646 301 623 301C600 301 577 301 554 301C531 301 508 301 484.8 301C461.7 301 438.3 301 415.2 301C392 301 369 301 346 301C323 301 300 301 277 301C254 301 231 301 207.8 301C184.7 301 161.3 301 138.2 301C115 301 92 301 69 301C46 301 23 301 11.5 301L0 301Z" fill="#3bb071"></path><path d="M0 273L11.5 273.5C23 274 46 275 69 273.7C92 272.3 115 268.7 138.2 269.3C161.3 270 184.7 275 207.8 274.5C231 274 254 268 277 265.2C300 262.3 323 262.7 346 265.5C369 268.3 392 273.7 415.2 274.2C438.3 274.7 461.7 270.3 484.8 269.8C508 269.3 531 272.7 554 273C577 273.3 600 270.7 623 270.3C646 270 669 272 692.2 271.7C715.3 271.3 738.7 268.7 761.8 269C785 269.3 808 272.7 831 273.5C854 274.3 877 272.7 888.5 271.8L900 271L900 301L888.5 301C877 301 854 301 831 301C808 301 785 301 761.8 301C738.7 301 715.3 301 692.2 301C669 301 646 301 623 301C600 301 577 301 554 301C531 301 508 301 484.8 301C461.7 301 438.3 301 415.2 301C392 301 369 301 346 301C323 301 300 301 277 301C254 301 231 301 207.8 301C184.7 301 161.3 301 138.2 301C115 301 92 301 69 301C46 301 23 301 11.5 301L0 301Z" fill="#48b76f"></path><path d="M0 279L11.5 277C23 275 46 271 69 270C92 269 115 271 138.2 274C161.3 277 184.7 281 207.8 280.8C231 280.7 254 276.3 277 274.3C300 272.3 323 272.7 346 275C369 277.3 392 281.7 415.2 281.2C438.3 280.7 461.7 275.3 484.8 275.3C508 275.3 531 280.7 554 280.3C577 280 600 274 623 273.2C646 272.3 669 276.7 692.2 277.2C715.3 277.7 738.7 274.3 761.8 275C785 275.7 808 280.3 831 280.3C854 280.3 877 275.7 888.5 273.3L900 271L900 301L888.5 301C877 301 854 301 831 301C808 301 785 301 761.8 301C738.7 301 715.3 301 692.2 301C669 301 646 301 623 301C600 301 577 301 554 301C531 301 508 301 484.8 301C461.7 301 438.3 301 415.2 301C392 301 369 301 346 301C323 301 300 301 277 301C254 301 231 301 207.8 301C184.7 301 161.3 301 138.2 301C115 301 92 301 69 301C46 301 23 301 11.5 301L0 301Z" fill="#54bd6d"></path><path d="M0 287L11.5 286.3C23 285.7 46 284.3 69 284.7C92 285 115 287 138.2 286.2C161.3 285.3 184.7 281.7 207.8 281.2C231 280.7 254 283.3 277 282.8C300 282.3 323 278.7 346 278.7C369 278.7 392 282.3 415.2 283.5C438.3 284.7 461.7 283.3 484.8 281.2C508 279 531 276 554 276.8C577 277.7 600 282.3 623 284.8C646 287.3 669 287.7 692.2 285.2C715.3 282.7 738.7 277.3 761.8 277.5C785 277.7 808 283.3 831 285.3C854 287.3 877 285.7 888.5 284.8L900 284L900 301L888.5 301C877 301 854 301 831 301C808 301 785 301 761.8 301C738.7 301 715.3 301 692.2 301C669 301 646 301 623 301C600 301 577 301 554 301C531 301 508 301 484.8 301C461.7 301 438.3 301 415.2 301C392 301 369 301 346 301C323 301 300 301 277 301C254 301 231 301 207.8 301C184.7 301 161.3 301 138.2 301C115 301 92 301 69 301C46 301 23 301 11.5 301L0 301Z" fill="#61c46a"></path><path d="M0 282L11.5 282C23 282 46 282 69 283C92 284 115 286 138.2 285.2C161.3 284.3 184.7 280.7 207.8 280.5C231 280.3 254 283.7 277 283.5C300 283.3 323 279.7 346 279C369 278.3 392 280.7 415.2 280.7C438.3 280.7 461.7 278.3 484.8 279.5C508 280.7 531 285.3 554 286.8C577 288.3 600 286.7 623 286.3C646 286 669 287 692.2 285.7C715.3 284.3 738.7 280.7 761.8 278.8C785 277 808 277 831 277.7C854 278.3 877 279.7 888.5 280.3L900 281L900 301L888.5 301C877 301 854 301 831 301C808 301 785 301 761.8 301C738.7 301 715.3 301 692.2 301C669 301 646 301 623 301C600 301 577 301 554 301C531 301 508 301 484.8 301C461.7 301 438.3 301 415.2 301C392 301 369 301 346 301C323 301 300 301 277 301C254 301 231 301 207.8 301C184.7 301 161.3 301 138.2 301C115 301 92 301 69 301C46 301 23 301 11.5 301L0 301Z" fill="#6eca67"></path><path d="M0 289L11.5 289.5C23 290 46 291 69 289.8C92 288.7 115 285.3 138.2 283.7C161.3 282 184.7 282 207.8 283.5C231 285 254 288 277 288.7C300 289.3 323 287.7 346 288.2C369 288.7 392 291.3 415.2 291.7C438.3 292 461.7 290 484.8 290C508 290 531 292 554 293C577 294 600 294 623 294C646 294 669 294 692.2 293.7C715.3 293.3 738.7 292.7 761.8 290.8C785 289 808 286 831 284.7C854 283.3 877 283.7 888.5 283.8L900 284L900 301L888.5 301C877 301 854 301 831 301C808 301 785 301 761.8 301C738.7 301 715.3 301 692.2 301C669 301 646 301 623 301C600 301 577 301 554 301C531 301 508 301 484.8 301C461.7 301 438.3 301 415.2 301C392 301 369 301 346 301C323 301 300 301 277 301C254 301 231 301 207.8 301C184.7 301 161.3 301 138.2 301C115 301 92 301 69 301C46 301 23 301 11.5 301L0 301Z" fill="#7cd064"></path><path d="M0 287L11.5 288.5C23 290 46 293 69 294.2C92 295.3 115 294.7 138.2 293.7C161.3 292.7 184.7 291.3 207.8 290.8C231 290.3 254 290.7 277 290.7C300 290.7 323 290.3 346 290.3C369 290.3 392 290.7 415.2 290.5C438.3 290.3 461.7 289.7 484.8 289.8C508 290 531 291 554 291.5C577 292 600 292 623 291.3C646 290.7 669 289.3 692.2 289C715.3 288.7 738.7 289.3 761.8 290.7C785 292 808 294 831 293.2C854 292.3 877 288.7 888.5 286.8L900 285L900 301L888.5 301C877 301 854 301 831 301C808 301 785 301 761.8 301C738.7 301 715.3 301 692.2 301C669 301 646 301 623 301C600 301 577 301 554 301C531 301 508 301 484.8 301C461.7 301 438.3 301 415.2 301C392 301 369 301 346 301C323 301 300 301 277 301C254 301 231 301 207.8 301C184.7 301 161.3 301 138.2 301C115 301 92 301 69 301C46 301 23 301 11.5 301L0 301Z" fill="#8ad660"></path><path d="M0 297L11.5 296.3C23 295.7 46 294.3 69 294.2C92 294 115 295 138.2 295.7C161.3 296.3 184.7 296.7 207.8 297C231 297.3 254 297.7 277 297.2C300 296.7 323 295.3 346 294.8C369 294.3 392 294.7 415.2 294.5C438.3 294.3 461.7 293.7 484.8 293.7C508 293.7 531 294.3 554 294.5C577 294.7 600 294.3 623 294.2C646 294 669 294 692.2 294.3C715.3 294.7 738.7 295.3 761.8 295.3C785 295.3 808 294.7 831 294C854 293.3 877 292.7 888.5 292.3L900 292L900 301L888.5 301C877 301 854 301 831 301C808 301 785 301 761.8 301C738.7 301 715.3 301 692.2 301C669 301 646 301 623 301C600 301 577 301 554 301C531 301 508 301 484.8 301C461.7 301 438.3 301 415.2 301C392 301 369 301 346 301C323 301 300 301 277 301C254 301 231 301 207.8 301C184.7 301 161.3 301 138.2 301C115 301 92 301 69 301C46 301 23 301 11.5 301L0 301Z" fill="#98dc5c"></path></svg>