<svg id="visual" viewBox="0 0 900 600" width="900" height="600" xmlns="http://www.w3.org/2000/svg" xmlns:xlink="http://www.w3.org/1999/xlink" version="1.1"><rect x="0" y="0" width="900" height="600" fill="#001220"></rect><path d="M0 103L21.5 109.3C43 115.7 86 128.3 128.8 131.5C171.7 134.7 214.3 128.3 257.2 120.7C300 113 343 104 385.8 105C428.7 106 471.3 117 514.2 118C557 119 600 110 642.8 108.3C685.7 106.7 728.3 112.3 771.2 117.3C814 122.3 857 126.7 878.5 128.8L900 131L900 0L878.5 0C857 0 814 0 771.2 0C728.3 0 685.7 0 642.8 0C600 0 557 0 514.2 0C471.3 0 428.7 0 385.8 0C343 0 300 0 257.2 0C214.3 0 171.7 0 128.8 0C86 0 43 0 21.5 0L0 0Z" fill="#24c446"></path><path d="M0 73L21.5 80.7C43 88.3 86 103.7 128.8 103.7C171.7 103.7 214.3 88.3 257.2 82.5C300 76.7 343 80.3 385.8 88.5C428.7 96.7 471.3 109.3 514.2 111.7C557 114 600 106 642.8 99.2C685.7 92.3 728.3 86.7 771.2 84.2C814 81.7 857 82.3 878.5 82.7L900 83L900 0L878.5 0C857 0 814 0 771.2 0C728.3 0 685.7 0 642.8 0C600 0 557 0 514.2 0C471.3 0 428.7 0 385.8 0C343 0 300 0 257.2 0C214.3 0 171.7 0 128.8 0C86 0 43 0 21.5 0L0 0Z" fill="#44d258"></path><path d="M0 63L21.5 62.2C43 61.3 86 59.7 128.8 62.5C171.7 65.3 214.3 72.7 257.2 75.3C300 78 343 76 385.8 77C428.7 78 471.3 82 514.2 84.3C557 86.7 600 87.3 642.8 88.8C685.7 90.3 728.3 92.7 771.2 88C814 83.3 857 71.7 878.5 65.8L900 60L900 0L878.5 0C857 0 814 0 771.2 0C728.3 0 685.7 0 642.8 0C600 0 557 0 514.2 0C471.3 0 428.7 0 385.8 0C343 0 300 0 257.2 0C214.3 0 171.7 0 128.8 0C86 0 43 0 21.5 0L0 0Z" fill="#5de069"></path><path d="M0 35L21.5 36.2C43 37.3 86 39.7 128.8 44C171.7 48.3 214.3 54.7 257.2 58.8C300 63 343 65 385.8 62.7C428.7 60.3 471.3 53.7 514.2 48C557 42.3 600 37.7 642.8 40.3C685.7 43 728.3 53 771.2 55C814 57 857 51 878.5 48L900 45L900 0L878.5 0C857 0 814 0 771.2 0C728.3 0 685.7 0 642.8 0C600 0 557 0 514.2 0C471.3 0 428.7 0 385.8 0C343 0 300 0 257.2 0C214.3 0 171.7 0 128.8 0C86 0 43 0 21.5 0L0 0Z" fill="#73ee7a"></path><path d="M0 30L21.5 30.7C43 31.3 86 32.7 128.8 31.3C171.7 30 214.3 26 257.2 27.3C300 28.7 343 35.3 385.8 37.7C428.7 40 471.3 38 514.2 33.8C557 29.7 600 23.3 642.8 23.8C685.7 24.3 728.3 31.7 771.2 33C814 34.3 857 29.7 878.5 27.3L900 25L900 0L878.5 0C857 0 814 0 771.2 0C728.3 0 685.7 0 642.8 0C600 0 557 0 514.2 0C471.3 0 428.7 0 385.8 0C343 0 300 0 257.2 0C214.3 0 171.7 0 128.8 0C86 0 43 0 21.5 0L0 0Z" fill="#88fd8b"></path></svg>