<svg id="visual" viewBox="0 0 900 450" width="900" height="450" xmlns="http://www.w3.org/2000/svg" xmlns:xlink="http://www.w3.org/1999/xlink" version="1.1"><rect x="0" y="0" width="900" height="450" fill="#031b2d"></rect><path d="M0 156L8.8 157.3C17.7 158.7 35.3 161.3 53 158.7C70.7 156 88.3 148 106 143.3C123.7 138.7 141.3 137.3 159 136.5C176.7 135.7 194.3 135.3 212 136.5C229.7 137.7 247.3 140.3 265 146.8C282.7 153.3 300.3 163.7 318 163.8C335.7 164 353.3 154 371 151.5C388.7 149 406.3 154 423.8 155.5C441.3 157 458.7 155 476.2 157.8C493.7 160.7 511.3 168.3 529 172.3C546.7 176.3 564.3 176.7 582 173.7C599.7 170.7 617.3 164.3 635 159C652.7 153.7 670.3 149.3 688 152.2C705.7 155 723.3 165 741 169C758.7 173 776.3 171 794 165.2C811.7 159.3 829.3 149.7 847 148.8C864.7 148 882.3 156 891.2 160L900 164L900 0L891.2 0C882.3 0 864.7 0 847 0C829.3 0 811.7 0 794 0C776.3 0 758.7 0 741 0C723.3 0 705.7 0 688 0C670.3 0 652.7 0 635 0C617.3 0 599.7 0 582 0C564.3 0 546.7 0 529 0C511.3 0 493.7 0 476.2 0C458.7 0 441.3 0 423.8 0C406.3 0 388.7 0 371 0C353.3 0 335.7 0 318 0C300.3 0 282.7 0 265 0C247.3 0 229.7 0 212 0C194.3 0 176.7 0 159 0C141.3 0 123.7 0 106 0C88.3 0 70.7 0 53 0C35.3 0 17.7 0 8.8 0L0 0Z" fill="#57f765"></path><path d="M0 149L8.8 149.2C17.7 149.3 35.3 149.7 53 146C70.7 142.3 88.3 134.7 106 135.2C123.7 135.7 141.3 144.3 159 142.8C176.7 141.3 194.3 129.7 212 127.5C229.7 125.3 247.3 132.7 265 136.7C282.7 140.7 300.3 141.3 318 137C335.7 132.7 353.3 123.3 371 121.3C388.7 119.3 406.3 124.7 423.8 125.2C441.3 125.7 458.7 121.3 476.2 123.8C493.7 126.3 511.3 135.7 529 139C546.7 142.3 564.3 139.7 582 138C599.7 136.3 617.3 135.7 635 136.2C652.7 136.7 670.3 138.3 688 134.7C705.7 131 723.3 122 741 123.7C758.7 125.3 776.3 137.7 794 141.2C811.7 144.7 829.3 139.3 847 134.2C864.7 129 882.3 124 891.2 121.5L900 119L900 0L891.2 0C882.3 0 864.7 0 847 0C829.3 0 811.7 0 794 0C776.3 0 758.7 0 741 0C723.3 0 705.7 0 688 0C670.3 0 652.7 0 635 0C617.3 0 599.7 0 582 0C564.3 0 546.7 0 529 0C511.3 0 493.7 0 476.2 0C458.7 0 441.3 0 423.8 0C406.3 0 388.7 0 371 0C353.3 0 335.7 0 318 0C300.3 0 282.7 0 265 0C247.3 0 229.7 0 212 0C194.3 0 176.7 0 159 0C141.3 0 123.7 0 106 0C88.3 0 70.7 0 53 0C35.3 0 17.7 0 8.8 0L0 0Z" fill="#4ce754"></path><path d="M0 109L8.8 112.2C17.7 115.3 35.3 121.7 53 121.7C70.7 121.7 88.3 115.3 106 114.8C123.7 114.3 141.3 119.7 159 123C176.7 126.3 194.3 127.7 212 124.5C229.7 121.3 247.3 113.7 265 112.7C282.7 111.7 300.3 117.3 318 117.5C335.7 117.7 353.3 112.3 371 110.2C388.7 108 406.3 109 423.8 107.7C441.3 106.3 458.7 102.7 476.2 105.7C493.7 108.7 511.3 118.3 529 121.3C546.7 124.3 564.3 120.7 582 119.2C599.7 117.7 617.3 118.3 635 116C652.7 113.7 670.3 108.3 688 107C705.7 105.7 723.3 108.3 741 109C758.7 109.7 776.3 108.3 794 105.3C811.7 102.3 829.3 97.7 847 95C864.7 92.3 882.3 91.7 891.2 91.3L900 91L900 0L891.2 0C882.3 0 864.7 0 847 0C829.3 0 811.7 0 794 0C776.3 0 758.7 0 741 0C723.3 0 705.7 0 688 0C670.3 0 652.7 0 635 0C617.3 0 599.7 0 582 0C564.3 0 546.7 0 529 0C511.3 0 493.7 0 476.2 0C458.7 0 441.3 0 423.8 0C406.3 0 388.7 0 371 0C353.3 0 335.7 0 318 0C300.3 0 282.7 0 265 0C247.3 0 229.7 0 212 0C194.3 0 176.7 0 159 0C141.3 0 123.7 0 106 0C88.3 0 70.7 0 53 0C35.3 0 17.7 0 8.8 0L0 0Z" fill="#40d844"></path><path d="M0 67L8.8 68C17.7 69 35.3 71 53 74C70.7 77 88.3 81 106 79.8C123.7 78.7 141.3 72.3 159 70.8C176.7 69.3 194.3 72.7 212 77C229.7 81.3 247.3 86.7 265 90.5C282.7 94.3 300.3 96.7 318 97.3C335.7 98 353.3 97 371 91.8C388.7 86.7 406.3 77.3 423.8 76.5C441.3 75.7 458.7 83.3 476.2 86.2C493.7 89 511.3 87 529 85.7C546.7 84.3 564.3 83.7 582 82.8C599.7 82 617.3 81 635 83.8C652.7 86.7 670.3 93.3 688 91C705.7 88.7 723.3 77.3 741 73.2C758.7 69 776.3 72 794 76C811.7 80 829.3 85 847 88.3C864.7 91.7 882.3 93.3 891.2 94.2L900 95L900 0L891.2 0C882.3 0 864.7 0 847 0C829.3 0 811.7 0 794 0C776.3 0 758.7 0 741 0C723.3 0 705.7 0 688 0C670.3 0 652.7 0 635 0C617.3 0 599.7 0 582 0C564.3 0 546.7 0 529 0C511.3 0 493.7 0 476.2 0C458.7 0 441.3 0 423.8 0C406.3 0 388.7 0 371 0C353.3 0 335.7 0 318 0C300.3 0 282.7 0 265 0C247.3 0 229.7 0 212 0C194.3 0 176.7 0 159 0C141.3 0 123.7 0 106 0C88.3 0 70.7 0 53 0C35.3 0 17.7 0 8.8 0L0 0Z" fill="#34c832"></path><path d="M0 63L8.8 61.3C17.7 59.7 35.3 56.3 53 53C70.7 49.7 88.3 46.3 106 45.7C123.7 45 141.3 47 159 49.7C176.7 52.3 194.3 55.7 212 56.2C229.7 56.7 247.3 54.3 265 53.3C282.7 52.3 300.3 52.7 318 55.7C335.7 58.7 353.3 64.3 371 64C388.7 63.7 406.3 57.3 423.8 53.7C441.3 50 458.7 49 476.2 47.7C493.7 46.3 511.3 44.7 529 43.7C546.7 42.7 564.3 42.3 582 42.7C599.7 43 617.3 44 635 47.2C652.7 50.3 670.3 55.7 688 59.2C705.7 62.7 723.3 64.3 741 64.2C758.7 64 776.3 62 794 58.5C811.7 55 829.3 50 847 51.3C864.7 52.7 882.3 60.3 891.2 64.2L900 68L900 0L891.2 0C882.3 0 864.7 0 847 0C829.3 0 811.7 0 794 0C776.3 0 758.7 0 741 0C723.3 0 705.7 0 688 0C670.3 0 652.7 0 635 0C617.3 0 599.7 0 582 0C564.3 0 546.7 0 529 0C511.3 0 493.7 0 476.2 0C458.7 0 441.3 0 423.8 0C406.3 0 388.7 0 371 0C353.3 0 335.7 0 318 0C300.3 0 282.7 0 265 0C247.3 0 229.7 0 212 0C194.3 0 176.7 0 159 0C141.3 0 123.7 0 106 0C88.3 0 70.7 0 53 0C35.3 0 17.7 0 8.8 0L0 0Z" fill="#26ba1f"></path><path d="M0 42L8.8 38.7C17.7 35.3 35.3 28.7 53 25.5C70.7 22.3 88.3 22.7 106 23.3C123.7 24 141.3 25 159 27.8C176.7 30.7 194.3 35.3 212 35C229.7 34.7 247.3 29.3 265 29.3C282.7 29.3 300.3 34.7 318 34.2C335.7 33.7 353.3 27.3 371 24.2C388.7 21 406.3 21 423.8 21.5C441.3 22 458.7 23 476.2 24.3C493.7 25.7 511.3 27.3 529 27.5C546.7 27.7 564.3 26.3 582 25.7C599.7 25 617.3 25 635 26.2C652.7 27.3 670.3 29.7 688 32.5C705.7 35.3 723.3 38.7 741 38.7C758.7 38.7 776.3 35.3 794 32.5C811.7 29.7 829.3 27.3 847 29C864.7 30.7 882.3 36.3 891.2 39.2L900 42L900 0L891.2 0C882.3 0 864.7 0 847 0C829.3 0 811.7 0 794 0C776.3 0 758.7 0 741 0C723.3 0 705.7 0 688 0C670.3 0 652.7 0 635 0C617.3 0 599.7 0 582 0C564.3 0 546.7 0 529 0C511.3 0 493.7 0 476.2 0C458.7 0 441.3 0 423.8 0C406.3 0 388.7 0 371 0C353.3 0 335.7 0 318 0C300.3 0 282.7 0 265 0C247.3 0 229.7 0 212 0C194.3 0 176.7 0 159 0C141.3 0 123.7 0 106 0C88.3 0 70.7 0 53 0C35.3 0 17.7 0 8.8 0L0 0Z" fill="#14ab00"></path></svg>