<svg id="visual" viewBox="0 0 900 300" width="900" height="300" xmlns="http://www.w3.org/2000/svg" xmlns:xlink="http://www.w3.org/1999/xlink" version="1.1"><rect x="0" y="0" width="900" height="300" fill="#001321"></rect><path d="M0 29L11.5 33.5C23 38 46 47 69 46.5C92 46 115 36 138.2 32.2C161.3 28.3 184.7 30.7 207.8 35.5C231 40.3 254 47.7 277 48.3C300 49 323 43 346 42C369 41 392 45 415.2 45.2C438.3 45.3 461.7 41.7 484.8 37.7C508 33.7 531 29.3 554 31.2C577 33 600 41 623 43.7C646 46.3 669 43.7 692.2 43.5C715.3 43.3 738.7 45.7 761.8 44.5C785 43.3 808 38.7 831 34.8C854 31 877 28 888.5 26.5L900 25L900 0L888.5 0C877 0 854 0 831 0C808 0 785 0 761.8 0C738.7 0 715.3 0 692.2 0C669 0 646 0 623 0C600 0 577 0 554 0C531 0 508 0 484.8 0C461.7 0 438.3 0 415.2 0C392 0 369 0 346 0C323 0 300 0 277 0C254 0 231 0 207.8 0C184.7 0 161.3 0 138.2 0C115 0 92 0 69 0C46 0 23 0 11.5 0L0 0Z" fill="#009473"></path><path d="M0 49L11.5 46.5C23 44 46 39 69 37.3C92 35.7 115 37.3 138.2 40C161.3 42.7 184.7 46.3 207.8 44.8C231 43.3 254 36.7 277 32C300 27.3 323 24.7 346 28.5C369 32.3 392 42.7 415.2 42.7C438.3 42.7 461.7 32.3 484.8 30.5C508 28.7 531 35.3 554 37C577 38.7 600 35.3 623 34C646 32.7 669 33.3 692.2 34.2C715.3 35 738.7 36 761.8 38.3C785 40.7 808 44.3 831 46.3C854 48.3 877 48.7 888.5 48.8L900 49L900 0L888.5 0C877 0 854 0 831 0C808 0 785 0 761.8 0C738.7 0 715.3 0 692.2 0C669 0 646 0 623 0C600 0 577 0 554 0C531 0 508 0 484.8 0C461.7 0 438.3 0 415.2 0C392 0 369 0 346 0C323 0 300 0 277 0C254 0 231 0 207.8 0C184.7 0 161.3 0 138.2 0C115 0 92 0 69 0C46 0 23 0 11.5 0L0 0Z" fill="#139b73"></path><path d="M0 41L11.5 40.2C23 39.3 46 37.7 69 37.2C92 36.7 115 37.3 138.2 39.2C161.3 41 184.7 44 207.8 41.8C231 39.7 254 32.3 277 32.5C300 32.7 323 40.3 346 42.8C369 45.3 392 42.7 415.2 40.3C438.3 38 461.7 36 484.8 36.5C508 37 531 40 554 40C577 40 600 37 623 37.5C646 38 669 42 692.2 40.3C715.3 38.7 738.7 31.3 761.8 27.3C785 23.3 808 22.7 831 24.5C854 26.3 877 30.7 888.5 32.8L900 35L900 0L888.5 0C877 0 854 0 831 0C808 0 785 0 761.8 0C738.7 0 715.3 0 692.2 0C669 0 646 0 623 0C600 0 577 0 554 0C531 0 508 0 484.8 0C461.7 0 438.3 0 415.2 0C392 0 369 0 346 0C323 0 300 0 277 0C254 0 231 0 207.8 0C184.7 0 161.3 0 138.2 0C115 0 92 0 69 0C46 0 23 0 11.5 0L0 0Z" fill="#22a273"></path><path d="M0 24L11.5 23C23 22 46 20 69 19C92 18 115 18 138.2 21.2C161.3 24.3 184.7 30.7 207.8 31.7C231 32.7 254 28.3 277 25.8C300 23.3 323 22.7 346 23.5C369 24.3 392 26.7 415.2 29.7C438.3 32.7 461.7 36.3 484.8 34.7C508 33 531 26 554 22.3C577 18.7 600 18.3 623 20C646 21.7 669 25.3 692.2 29.8C715.3 34.3 738.7 39.7 761.8 41.7C785 43.7 808 42.3 831 40.7C854 39 877 37 888.5 36L900 35L900 0L888.5 0C877 0 854 0 831 0C808 0 785 0 761.8 0C738.7 0 715.3 0 692.2 0C669 0 646 0 623 0C600 0 577 0 554 0C531 0 508 0 484.8 0C461.7 0 438.3 0 415.2 0C392 0 369 0 346 0C323 0 300 0 277 0C254 0 231 0 207.8 0C184.7 0 161.3 0 138.2 0C115 0 92 0 69 0C46 0 23 0 11.5 0L0 0Z" fill="#2fa972"></path><path d="M0 25L11.5 27.2C23 29.3 46 33.7 69 34.3C92 35 115 32 138.2 29C161.3 26 184.7 23 207.8 20.8C231 18.7 254 17.3 277 19.2C300 21 323 26 346 28.8C369 31.7 392 32.3 415.2 32.2C438.3 32 461.7 31 484.8 30.2C508 29.3 531 28.7 554 27.2C577 25.7 600 23.3 623 21.5C646 19.7 669 18.3 692.2 19.5C715.3 20.7 738.7 24.3 761.8 27.5C785 30.7 808 33.3 831 34C854 34.7 877 33.3 888.5 32.7L900 32L900 0L888.5 0C877 0 854 0 831 0C808 0 785 0 761.8 0C738.7 0 715.3 0 692.2 0C669 0 646 0 623 0C600 0 577 0 554 0C531 0 508 0 484.8 0C461.7 0 438.3 0 415.2 0C392 0 369 0 346 0C323 0 300 0 277 0C254 0 231 0 207.8 0C184.7 0 161.3 0 138.2 0C115 0 92 0 69 0C46 0 23 0 11.5 0L0 0Z" fill="#3bb071"></path><path d="M0 25L11.5 24.5C23 24 46 23 69 24.3C92 25.7 115 29.3 138.2 28.7C161.3 28 184.7 23 207.8 23.5C231 24 254 30 277 32.8C300 35.7 323 35.3 346 32.5C369 29.7 392 24.3 415.2 23.8C438.3 23.3 461.7 27.7 484.8 28.2C508 28.7 531 25.3 554 25C577 24.7 600 27.3 623 27.7C646 28 669 26 692.2 26.3C715.3 26.7 738.7 29.3 761.8 29C785 28.7 808 25.3 831 24.5C854 23.7 877 25.3 888.5 26.2L900 27L900 0L888.5 0C877 0 854 0 831 0C808 0 785 0 761.8 0C738.7 0 715.3 0 692.2 0C669 0 646 0 623 0C600 0 577 0 554 0C531 0 508 0 484.8 0C461.7 0 438.3 0 415.2 0C392 0 369 0 346 0C323 0 300 0 277 0C254 0 231 0 207.8 0C184.7 0 161.3 0 138.2 0C115 0 92 0 69 0C46 0 23 0 11.5 0L0 0Z" fill="#48b76f"></path><path d="M0 19L11.5 21C23 23 46 27 69 28C92 29 115 27 138.2 24C161.3 21 184.7 17 207.8 17.2C231 17.3 254 21.7 277 23.7C300 25.7 323 25.3 346 23C369 20.7 392 16.3 415.2 16.8C438.3 17.3 461.7 22.7 484.8 22.7C508 22.7 531 17.3 554 17.7C577 18 600 24 623 24.8C646 25.7 669 21.3 692.2 20.8C715.3 20.3 738.7 23.7 761.8 23C785 22.3 808 17.7 831 17.7C854 17.7 877 22.3 888.5 24.7L900 27L900 0L888.5 0C877 0 854 0 831 0C808 0 785 0 761.8 0C738.7 0 715.3 0 692.2 0C669 0 646 0 623 0C600 0 577 0 554 0C531 0 508 0 484.8 0C461.7 0 438.3 0 415.2 0C392 0 369 0 346 0C323 0 300 0 277 0C254 0 231 0 207.8 0C184.7 0 161.3 0 138.2 0C115 0 92 0 69 0C46 0 23 0 11.5 0L0 0Z" fill="#54bd6d"></path><path d="M0 11L11.5 11.7C23 12.3 46 13.7 69 13.3C92 13 115 11 138.2 11.8C161.3 12.7 184.7 16.3 207.8 16.8C231 17.3 254 14.7 277 15.2C300 15.7 323 19.3 346 19.3C369 19.3 392 15.7 415.2 14.5C438.3 13.3 461.7 14.7 484.8 16.8C508 19 531 22 554 21.2C577 20.3 600 15.7 623 13.2C646 10.7 669 10.3 692.2 12.8C715.3 15.3 738.7 20.7 761.8 20.5C785 20.3 808 14.7 831 12.7C854 10.7 877 12.3 888.5 13.2L900 14L900 0L888.5 0C877 0 854 0 831 0C808 0 785 0 761.8 0C738.7 0 715.3 0 692.2 0C669 0 646 0 623 0C600 0 577 0 554 0C531 0 508 0 484.8 0C461.7 0 438.3 0 415.2 0C392 0 369 0 346 0C323 0 300 0 277 0C254 0 231 0 207.8 0C184.7 0 161.3 0 138.2 0C115 0 92 0 69 0C46 0 23 0 11.5 0L0 0Z" fill="#61c46a"></path><path d="M0 16L11.5 16C23 16 46 16 69 15C92 14 115 12 138.2 12.8C161.3 13.7 184.7 17.3 207.8 17.5C231 17.7 254 14.3 277 14.5C300 14.7 323 18.3 346 19C369 19.7 392 17.3 415.2 17.3C438.3 17.3 461.7 19.7 484.8 18.5C508 17.3 531 12.7 554 11.2C577 9.7 600 11.3 623 11.7C646 12 669 11 692.2 12.3C715.3 13.7 738.7 17.3 761.8 19.2C785 21 808 21 831 20.3C854 19.7 877 18.3 888.5 17.7L900 17L900 0L888.5 0C877 0 854 0 831 0C808 0 785 0 761.8 0C738.7 0 715.3 0 692.2 0C669 0 646 0 623 0C600 0 577 0 554 0C531 0 508 0 484.8 0C461.7 0 438.3 0 415.2 0C392 0 369 0 346 0C323 0 300 0 277 0C254 0 231 0 207.8 0C184.7 0 161.3 0 138.2 0C115 0 92 0 69 0C46 0 23 0 11.5 0L0 0Z" fill="#6eca67"></path><path d="M0 9L11.5 8.5C23 8 46 7 69 8.2C92 9.3 115 12.7 138.2 14.3C161.3 16 184.7 16 207.8 14.5C231 13 254 10 277 9.3C300 8.7 323 10.3 346 9.8C369 9.3 392 6.7 415.2 6.3C438.3 6 461.7 8 484.8 8C508 8 531 6 554 5C577 4 600 4 623 4C646 4 669 4 692.2 4.3C715.3 4.7 738.7 5.3 761.8 7.2C785 9 808 12 831 13.3C854 14.7 877 14.3 888.5 14.2L900 14L900 0L888.5 0C877 0 854 0 831 0C808 0 785 0 761.8 0C738.7 0 715.3 0 692.2 0C669 0 646 0 623 0C600 0 577 0 554 0C531 0 508 0 484.8 0C461.7 0 438.3 0 415.2 0C392 0 369 0 346 0C323 0 300 0 277 0C254 0 231 0 207.8 0C184.7 0 161.3 0 138.2 0C115 0 92 0 69 0C46 0 23 0 11.5 0L0 0Z" fill="#7cd064"></path><path d="M0 11L11.5 9.5C23 8 46 5 69 3.8C92 2.7 115 3.3 138.2 4.3C161.3 5.3 184.7 6.7 207.8 7.2C231 7.7 254 7.3 277 7.3C300 7.3 323 7.7 346 7.7C369 7.7 392 7.3 415.2 7.5C438.3 7.7 461.7 8.3 484.8 8.2C508 8 531 7 554 6.5C577 6 600 6 623 6.7C646 7.3 669 8.7 692.2 9C715.3 9.3 738.7 8.7 761.8 7.3C785 6 808 4 831 4.8C854 5.7 877 9.3 888.5 11.2L900 13L900 0L888.5 0C877 0 854 0 831 0C808 0 785 0 761.8 0C738.7 0 715.3 0 692.2 0C669 0 646 0 623 0C600 0 577 0 554 0C531 0 508 0 484.8 0C461.7 0 438.3 0 415.2 0C392 0 369 0 346 0C323 0 300 0 277 0C254 0 231 0 207.8 0C184.7 0 161.3 0 138.2 0C115 0 92 0 69 0C46 0 23 0 11.5 0L0 0Z" fill="#8ad660"></path><path d="M0 1L11.5 1.7C23 2.3 46 3.7 69 3.8C92 4 115 3 138.2 2.3C161.3 1.7 184.7 1.3 207.8 1C231 0.7 254 0.3 277 0.8C300 1.3 323 2.7 346 3.2C369 3.7 392 3.3 415.2 3.5C438.3 3.7 461.7 4.3 484.8 4.3C508 4.3 531 3.7 554 3.5C577 3.3 600 3.7 623 3.8C646 4 669 4 692.2 3.7C715.3 3.3 738.7 2.7 761.8 2.7C785 2.7 808 3.3 831 4C854 4.7 877 5.3 888.5 5.7L900 6L900 0L888.5 0C877 0 854 0 831 0C808 0 785 0 761.8 0C738.7 0 715.3 0 692.2 0C669 0 646 0 623 0C600 0 577 0 554 0C531 0 508 0 484.8 0C461.7 0 438.3 0 415.2 0C392 0 369 0 346 0C323 0 300 0 277 0C254 0 231 0 207.8 0C184.7 0 161.3 0 138.2 0C115 0 92 0 69 0C46 0 23 0 11.5 0L0 0Z" fill="#98dc5c"></path></svg>