<svg id="visual" viewBox="0 0 900 450" width="900" height="450" xmlns="http://www.w3.org/2000/svg" xmlns:xlink="http://www.w3.org/1999/xlink" version="1.1"><rect x="0" y="0" width="900" height="450" fill="#001220"></rect><path d="M0 54L21.5 54.8C43 55.7 86 57.3 128.8 59.7C171.7 62 214.3 65 257.2 65C300 65 343 62 385.8 59.8C428.7 57.7 471.3 56.3 514.2 57.8C557 59.3 600 63.7 642.8 65.5C685.7 67.3 728.3 66.7 771.2 65.5C814 64.3 857 62.7 878.5 61.8L900 61L900 0L878.5 0C857 0 814 0 771.2 0C728.3 0 685.7 0 642.8 0C600 0 557 0 514.2 0C471.3 0 428.7 0 385.8 0C343 0 300 0 257.2 0C214.3 0 171.7 0 128.8 0C86 0 43 0 21.5 0L0 0Z" fill="#009473"></path><path d="M0 53L21.5 53C43 53 86 53 128.8 52.5C171.7 52 214.3 51 257.2 49.8C300 48.7 343 47.3 385.8 47.5C428.7 47.7 471.3 49.3 514.2 49.2C557 49 600 47 642.8 47.2C685.7 47.3 728.3 49.7 771.2 50.3C814 51 857 50 878.5 49.5L900 49L900 0L878.5 0C857 0 814 0 771.2 0C728.3 0 685.7 0 642.8 0C600 0 557 0 514.2 0C471.3 0 428.7 0 385.8 0C343 0 300 0 257.2 0C214.3 0 171.7 0 128.8 0C86 0 43 0 21.5 0L0 0Z" fill="#2ba772"></path><path d="M0 33L21.5 32.8C43 32.7 86 32.3 128.8 33.7C171.7 35 214.3 38 257.2 38.8C300 39.7 343 38.3 385.8 37.7C428.7 37 471.3 37 514.2 36.5C557 36 600 35 642.8 34.5C685.7 34 728.3 34 771.2 35.3C814 36.7 857 39.3 878.5 40.7L900 42L900 0L878.5 0C857 0 814 0 771.2 0C728.3 0 685.7 0 642.8 0C600 0 557 0 514.2 0C471.3 0 428.7 0 385.8 0C343 0 300 0 257.2 0C214.3 0 171.7 0 128.8 0C86 0 43 0 21.5 0L0 0Z" fill="#4eba6e"></path><path d="M0 25L21.5 24.5C43 24 86 23 128.8 23.5C171.7 24 214.3 26 257.2 25.7C300 25.3 343 22.7 385.8 22.3C428.7 22 471.3 24 514.2 24.3C557 24.7 600 23.3 642.8 22.7C685.7 22 728.3 22 771.2 22.2C814 22.3 857 22.7 878.5 22.8L900 23L900 0L878.5 0C857 0 814 0 771.2 0C728.3 0 685.7 0 642.8 0C600 0 557 0 514.2 0C471.3 0 428.7 0 385.8 0C343 0 300 0 257.2 0C214.3 0 171.7 0 128.8 0C86 0 43 0 21.5 0L0 0Z" fill="#72cc66"></path><path d="M0 12L21.5 12.8C43 13.7 86 15.3 128.8 15.7C171.7 16 214.3 15 257.2 15C300 15 343 16 385.8 15.5C428.7 15 471.3 13 514.2 11.8C557 10.7 600 10.3 642.8 11C685.7 11.7 728.3 13.3 771.2 13.5C814 13.7 857 12.3 878.5 11.7L900 11L900 0L878.5 0C857 0 814 0 771.2 0C728.3 0 685.7 0 642.8 0C600 0 557 0 514.2 0C471.3 0 428.7 0 385.8 0C343 0 300 0 257.2 0C214.3 0 171.7 0 128.8 0C86 0 43 0 21.5 0L0 0Z" fill="#98dc5c"></path></svg>