<svg id="visual" viewBox="0 0 900 450" width="900" height="450" xmlns="http://www.w3.org/2000/svg" xmlns:xlink="http://www.w3.org/1999/xlink" version="1.1"><rect x="0" y="0" width="900" height="450" fill="#031b2d"></rect><path d="M0 166L8.8 163.7C17.7 161.3 35.3 156.7 53 161.5C70.7 166.3 88.3 180.7 106 189C123.7 197.3 141.3 199.7 159 201.2C176.7 202.7 194.3 203.3 212 201.3C229.7 199.3 247.3 194.7 265 183C282.7 171.3 300.3 152.7 318 152.5C335.7 152.3 353.3 170.7 371 175.2C388.7 179.7 406.3 170.3 423.8 167.3C441.3 164.3 458.7 167.7 476.2 162.7C493.7 157.7 511.3 144.3 529 137.3C546.7 130.3 564.3 129.7 582 135C599.7 140.3 617.3 151.7 635 161.3C652.7 171 670.3 179 688 173.8C705.7 168.7 723.3 150.3 741 143C758.7 135.7 776.3 139.3 794 149.8C811.7 160.3 829.3 177.7 847 179.2C864.7 180.7 882.3 166.3 891.2 159.2L900 152L900 451L891.2 451C882.3 451 864.7 451 847 451C829.3 451 811.7 451 794 451C776.3 451 758.7 451 741 451C723.3 451 705.7 451 688 451C670.3 451 652.7 451 635 451C617.3 451 599.7 451 582 451C564.3 451 546.7 451 529 451C511.3 451 493.7 451 476.2 451C458.7 451 441.3 451 423.8 451C406.3 451 388.7 451 371 451C353.3 451 335.7 451 318 451C300.3 451 282.7 451 265 451C247.3 451 229.7 451 212 451C194.3 451 176.7 451 159 451C141.3 451 123.7 451 106 451C88.3 451 70.7 451 53 451C35.3 451 17.7 451 8.8 451L0 451Z" fill="#57f765"></path><path d="M0 180L8.8 179.7C17.7 179.3 35.3 178.7 53 185C70.7 191.3 88.3 204.7 106 203.7C123.7 202.7 141.3 187.3 159 190C176.7 192.7 194.3 213.3 212 217.3C229.7 221.3 247.3 208.7 265 201.7C282.7 194.7 300.3 193.3 318 201C335.7 208.7 353.3 225.3 371 229C388.7 232.7 406.3 223.3 423.8 222.3C441.3 221.3 458.7 228.7 476.2 224C493.7 219.3 511.3 202.7 529 196.8C546.7 191 564.3 196 582 198.8C599.7 201.7 617.3 202.3 635 201.3C652.7 200.3 670.3 197.7 688 204.3C705.7 211 723.3 227 741 224C758.7 221 776.3 199 794 192.8C811.7 186.7 829.3 196.3 847 205.7C864.7 215 882.3 224 891.2 228.5L900 233L900 451L891.2 451C882.3 451 864.7 451 847 451C829.3 451 811.7 451 794 451C776.3 451 758.7 451 741 451C723.3 451 705.7 451 688 451C670.3 451 652.7 451 635 451C617.3 451 599.7 451 582 451C564.3 451 546.7 451 529 451C511.3 451 493.7 451 476.2 451C458.7 451 441.3 451 423.8 451C406.3 451 388.7 451 371 451C353.3 451 335.7 451 318 451C300.3 451 282.7 451 265 451C247.3 451 229.7 451 212 451C194.3 451 176.7 451 159 451C141.3 451 123.7 451 106 451C88.3 451 70.7 451 53 451C35.3 451 17.7 451 8.8 451L0 451Z" fill="#4ce754"></path><path d="M0 251L8.8 245.5C17.7 240 35.3 229 53 229C70.7 229 88.3 240 106 240.7C123.7 241.3 141.3 231.7 159 225.7C176.7 219.7 194.3 217.3 212 223.2C229.7 229 247.3 243 265 244.8C282.7 246.7 300.3 236.3 318 235.8C335.7 235.3 353.3 244.7 371 248.7C388.7 252.7 406.3 251.3 423.8 254C441.3 256.7 458.7 263.3 476.2 257.7C493.7 252 511.3 234 529 228.5C546.7 223 564.3 230 582 232.8C599.7 235.7 617.3 234.3 635 238.3C652.7 242.3 670.3 251.7 688 254C705.7 256.3 723.3 251.7 741 250.5C758.7 249.3 776.3 251.7 794 257C811.7 262.3 829.3 270.7 847 275.7C864.7 280.7 882.3 282.3 891.2 283.2L900 284L900 451L891.2 451C882.3 451 864.7 451 847 451C829.3 451 811.7 451 794 451C776.3 451 758.7 451 741 451C723.3 451 705.7 451 688 451C670.3 451 652.7 451 635 451C617.3 451 599.7 451 582 451C564.3 451 546.7 451 529 451C511.3 451 493.7 451 476.2 451C458.7 451 441.3 451 423.8 451C406.3 451 388.7 451 371 451C353.3 451 335.7 451 318 451C300.3 451 282.7 451 265 451C247.3 451 229.7 451 212 451C194.3 451 176.7 451 159 451C141.3 451 123.7 451 106 451C88.3 451 70.7 451 53 451C35.3 451 17.7 451 8.8 451L0 451Z" fill="#40d844"></path><path d="M0 327L8.8 325C17.7 323 35.3 319 53 313.5C70.7 308 88.3 301 106 303.2C123.7 305.3 141.3 316.7 159 319.3C176.7 322 194.3 316 212 308.3C229.7 300.7 247.3 291.3 265 284.5C282.7 277.7 300.3 273.3 318 272C335.7 270.7 353.3 272.3 371 281.5C388.7 290.7 406.3 307.3 423.8 308.8C441.3 310.3 458.7 296.7 476.2 291.8C493.7 287 511.3 291 529 293.5C546.7 296 564.3 297 582 298.3C599.7 299.7 617.3 301.3 635 296.2C652.7 291 670.3 279 688 283.3C705.7 287.7 723.3 308.3 741 315.8C758.7 323.3 776.3 317.7 794 310.3C811.7 303 829.3 294 847 288C864.7 282 882.3 279 891.2 277.5L900 276L900 451L891.2 451C882.3 451 864.7 451 847 451C829.3 451 811.7 451 794 451C776.3 451 758.7 451 741 451C723.3 451 705.7 451 688 451C670.3 451 652.7 451 635 451C617.3 451 599.7 451 582 451C564.3 451 546.7 451 529 451C511.3 451 493.7 451 476.2 451C458.7 451 441.3 451 423.8 451C406.3 451 388.7 451 371 451C353.3 451 335.7 451 318 451C300.3 451 282.7 451 265 451C247.3 451 229.7 451 212 451C194.3 451 176.7 451 159 451C141.3 451 123.7 451 106 451C88.3 451 70.7 451 53 451C35.3 451 17.7 451 8.8 451L0 451Z" fill="#34c832"></path><path d="M0 334L8.8 337.2C17.7 340.3 35.3 346.7 53 352.5C70.7 358.3 88.3 363.7 106 364.8C123.7 366 141.3 363 159 358.5C176.7 354 194.3 348 212 347C229.7 346 247.3 350 265 351.8C282.7 353.7 300.3 353.3 318 348C335.7 342.7 353.3 332.3 371 332.8C388.7 333.3 406.3 344.7 423.8 351.2C441.3 357.7 458.7 359.3 476.2 361.7C493.7 364 511.3 367 529 368.8C546.7 370.7 564.3 371.3 582 370.7C599.7 370 617.3 368 635 362.2C652.7 356.3 670.3 346.7 688 340.5C705.7 334.3 723.3 331.7 741 332C758.7 332.3 776.3 335.7 794 341.8C811.7 348 829.3 357 847 354.5C864.7 352 882.3 338 891.2 331L900 324L900 451L891.2 451C882.3 451 864.7 451 847 451C829.3 451 811.7 451 794 451C776.3 451 758.7 451 741 451C723.3 451 705.7 451 688 451C670.3 451 652.7 451 635 451C617.3 451 599.7 451 582 451C564.3 451 546.7 451 529 451C511.3 451 493.7 451 476.2 451C458.7 451 441.3 451 423.8 451C406.3 451 388.7 451 371 451C353.3 451 335.7 451 318 451C300.3 451 282.7 451 265 451C247.3 451 229.7 451 212 451C194.3 451 176.7 451 159 451C141.3 451 123.7 451 106 451C88.3 451 70.7 451 53 451C35.3 451 17.7 451 8.8 451L0 451Z" fill="#26ba1f"></path><path d="M0 372L8.8 377.8C17.7 383.7 35.3 395.3 53 400.8C70.7 406.3 88.3 405.7 106 404.7C123.7 403.7 141.3 402.3 159 397.3C176.7 392.3 194.3 383.7 212 384.2C229.7 384.7 247.3 394.3 265 394.3C282.7 394.3 300.3 384.7 318 385.7C335.7 386.7 353.3 398.3 371 404.2C388.7 410 406.3 410 423.8 408.8C441.3 407.7 458.7 405.3 476.2 402.8C493.7 400.3 511.3 397.7 529 397.7C546.7 397.7 564.3 400.3 582 401.5C599.7 402.7 617.3 402.3 635 400.2C652.7 398 670.3 394 688 389C705.7 384 723.3 378 741 377.8C758.7 377.7 776.3 383.3 794 388.5C811.7 393.7 829.3 398.3 847 395.3C864.7 392.3 882.3 381.7 891.2 376.3L900 371L900 451L891.2 451C882.3 451 864.7 451 847 451C829.3 451 811.7 451 794 451C776.3 451 758.7 451 741 451C723.3 451 705.7 451 688 451C670.3 451 652.7 451 635 451C617.3 451 599.7 451 582 451C564.3 451 546.7 451 529 451C511.3 451 493.7 451 476.2 451C458.7 451 441.3 451 423.8 451C406.3 451 388.7 451 371 451C353.3 451 335.7 451 318 451C300.3 451 282.7 451 265 451C247.3 451 229.7 451 212 451C194.3 451 176.7 451 159 451C141.3 451 123.7 451 106 451C88.3 451 70.7 451 53 451C35.3 451 17.7 451 8.8 451L0 451Z" fill="#14ab00"></path></svg>